<?xml version="1.0" encoding="UTF-8"?>
<svg width="366px" height="64px" viewBox="0 0 366 64" version="1.1" xmlns="http://www.w3.org/2000/svg" xmlns:xlink="http://www.w3.org/1999/xlink">
    <!-- Generator: Sketch 61.2 (89653) - https://sketch.com -->
    <title>Group 2</title>
    <desc>Created with Sketch.</desc>
    <g id="Page-1" stroke="none" stroke-width="1" fill="none" fill-rule="evenodd">
        <g id="Desktop-Design" transform="translate(-210.000000, -40.000000)" fill-rule="nonzero">
            <g id="Group-2" transform="translate(210.000000, 40.000000)">
                <path d="M5.016,56.84 L6.096,53.696 L12.816,53.696 L13.896,56.84 L18.912,56.84 L12.024,38.744 L6.888,38.744 L0,56.84 L5.016,56.84 Z M11.568,50.12 L7.344,50.12 L9.456,44.096 L11.568,50.12 Z M24.912,56.84 L24.912,50.264 C24.912,49.448 25.108,48.82 25.5,48.38 C25.892,47.94 26.456,47.72 27.192,47.72 C27.464,47.72 27.72,47.76 27.96,47.84 C28.2,47.92 28.416,48.056 28.608,48.248 C28.832,48.472 28.988,48.772 29.076,49.148 C29.164,49.524 29.208,50.016 29.208,50.624 L29.208,50.624 L29.208,56.84 L33.552,56.84 L33.552,49.016 C33.552,48.36 33.488,47.776 33.36,47.264 C33.232,46.752 32.992,46.288 32.64,45.872 C32.208,45.36 31.684,44.964 31.068,44.684 C30.452,44.404 29.712,44.264 28.848,44.264 C28.032,44.264 27.32,44.388 26.712,44.636 C26.104,44.884 25.504,45.368 24.912,46.088 L24.912,46.088 L24.912,44.528 L20.568,44.528 L20.568,56.84 L24.912,56.84 Z M40.848,56.84 L40.848,50.264 C40.848,49.448 41.044,48.82 41.436,48.38 C41.828,47.94 42.392,47.72 43.128,47.72 C43.4,47.72 43.656,47.76 43.896,47.84 C44.136,47.92 44.352,48.056 44.544,48.248 C44.768,48.472 44.924,48.772 45.012,49.148 C45.1,49.524 45.144,50.016 45.144,50.624 L45.144,50.624 L45.144,56.84 L49.488,56.84 L49.488,49.016 C49.488,48.36 49.424,47.776 49.296,47.264 C49.168,46.752 48.928,46.288 48.576,45.872 C48.144,45.36 47.62,44.964 47.004,44.684 C46.388,44.404 45.648,44.264 44.784,44.264 C43.968,44.264 43.256,44.388 42.648,44.636 C42.04,44.884 41.44,45.368 40.848,46.088 L40.848,46.088 L40.848,44.528 L36.504,44.528 L36.504,56.84 L40.848,56.84 Z M58.176,57.224 C59.76,57.224 61.016,56.64 61.944,55.472 L61.944,55.472 L61.944,56.84 L66.312,56.84 L66.312,44.528 L61.944,44.528 L61.944,45.752 C60.936,44.68 59.664,44.144 58.128,44.144 C57.216,44.144 56.384,44.316 55.632,44.66 C54.88,45.004 54.232,45.472 53.688,46.064 C53.144,46.656 52.72,47.348 52.416,48.14 C52.112,48.932 51.96,49.768 51.96,50.648 C51.96,51.592 52.116,52.464 52.428,53.264 C52.74,54.064 53.176,54.76 53.736,55.352 C54.296,55.944 54.952,56.404 55.704,56.732 C56.456,57.06 57.28,57.224 58.176,57.224 Z M59.28,53.48 C58.88,53.48 58.508,53.408 58.164,53.264 C57.82,53.12 57.524,52.92 57.276,52.664 C57.028,52.408 56.832,52.108 56.688,51.764 C56.544,51.42 56.472,51.048 56.472,50.648 C56.472,50.264 56.544,49.908 56.688,49.58 C56.832,49.252 57.028,48.96 57.276,48.704 C57.524,48.448 57.82,48.248 58.164,48.104 C58.508,47.96 58.88,47.888 59.28,47.888 C59.664,47.888 60.028,47.96 60.372,48.104 C60.716,48.248 61.012,48.448 61.26,48.704 C61.508,48.96 61.708,49.26 61.86,49.604 C62.012,49.948 62.088,50.312 62.088,50.696 C62.088,51.08 62.012,51.44 61.86,51.776 C61.708,52.112 61.508,52.408 61.26,52.664 C61.012,52.92 60.716,53.12 60.372,53.264 C60.028,53.408 59.664,53.48 59.28,53.48 Z M73.608,56.84 L73.608,36.92 L69.264,36.92 L69.264,56.84 L73.608,56.84 Z M88.152,57.344 C88.792,57.344 89.404,57.26 89.988,57.092 C90.572,56.924 91.104,56.692 91.584,56.396 C92.064,56.1 92.484,55.74 92.844,55.316 C93.204,54.892 93.488,54.424 93.696,53.912 C93.824,53.592 93.916,53.208 93.972,52.76 C94.028,52.312 94.056,51.824 94.056,51.296 L94.056,51.296 L94.056,38.744 L89.352,38.744 L89.352,51.224 C89.352,52.616 88.912,53.312 88.032,53.312 C87.632,53.312 87.296,53.152 87.024,52.832 C86.752,52.512 86.576,52.08 86.496,51.536 L86.496,51.536 L83.424,54.68 C84.64,56.456 86.216,57.344 88.152,57.344 Z M102.6,62.984 L112.488,44.528 L107.496,44.528 L104.304,50.84 L101.016,44.528 L95.976,44.528 L101.928,55.16 L97.728,62.984 L102.6,62.984 Z M120.816,57.296 C121.888,57.296 122.884,57.136 123.804,56.816 C124.724,56.496 125.512,56.044 126.168,55.46 C126.824,54.876 127.34,54.18 127.716,53.372 C128.092,52.564 128.28,51.672 128.28,50.696 C128.28,49.72 128.096,48.828 127.728,48.02 C127.36,47.212 126.844,46.516 126.18,45.932 C125.516,45.348 124.732,44.892 123.828,44.564 C122.924,44.236 121.944,44.072 120.888,44.072 C119.816,44.072 118.828,44.24 117.924,44.576 C117.02,44.912 116.24,45.372 115.584,45.956 C114.928,46.54 114.416,47.228 114.048,48.02 C113.68,48.812 113.496,49.664 113.496,50.576 C113.496,51.584 113.68,52.5 114.048,53.324 C114.416,54.148 114.924,54.856 115.572,55.448 C116.22,56.04 116.992,56.496 117.888,56.816 C118.784,57.136 119.76,57.296 120.816,57.296 Z M120.888,53.48 C120.504,53.48 120.14,53.408 119.796,53.264 C119.452,53.12 119.156,52.92 118.908,52.664 C118.66,52.408 118.46,52.108 118.308,51.764 C118.156,51.42 118.08,51.04 118.08,50.624 C118.08,50.24 118.156,49.88 118.308,49.544 C118.46,49.208 118.66,48.912 118.908,48.656 C119.156,48.4 119.452,48.2 119.796,48.056 C120.14,47.912 120.504,47.84 120.888,47.84 C121.272,47.84 121.636,47.912 121.98,48.056 C122.324,48.2 122.62,48.4 122.868,48.656 C123.116,48.912 123.316,49.212 123.468,49.556 C123.62,49.9 123.696,50.264 123.696,50.648 C123.696,51.048 123.62,51.42 123.468,51.764 C123.316,52.108 123.116,52.408 122.868,52.664 C122.62,52.92 122.324,53.12 121.98,53.264 C121.636,53.408 121.272,53.48 120.888,53.48 Z M135.624,56.84 L135.624,48.152 L138.096,48.152 L138.096,44.528 L135.624,44.528 L135.624,40.832 L131.28,40.832 L131.28,44.528 L129.84,44.528 L129.84,48.152 L131.28,48.152 L131.28,56.84 L135.624,56.84 Z M141.888,42.248 C142.224,42.248 142.54,42.184 142.836,42.056 C143.132,41.928 143.392,41.752 143.616,41.528 C143.84,41.304 144.016,41.044 144.144,40.748 C144.272,40.452 144.336,40.136 144.336,39.8 C144.336,39.464 144.272,39.148 144.144,38.852 C144.016,38.556 143.84,38.296 143.616,38.072 C143.392,37.848 143.132,37.672 142.836,37.544 C142.54,37.416 142.224,37.352 141.888,37.352 C141.552,37.352 141.236,37.416 140.94,37.544 C140.644,37.672 140.384,37.848 140.16,38.072 C139.936,38.296 139.76,38.556 139.632,38.852 C139.504,39.148 139.44,39.464 139.44,39.8 C139.44,40.136 139.504,40.452 139.632,40.748 C139.76,41.044 139.936,41.304 140.16,41.528 C140.384,41.752 140.644,41.928 140.94,42.056 C141.236,42.184 141.552,42.248 141.888,42.248 Z M144.072,56.84 L144.072,44.528 L139.728,44.528 L139.728,56.84 L144.072,56.84 Z M163.176,56.84 C164.136,56.84 165,56.728 165.768,56.504 C166.536,56.28 167.188,55.944 167.724,55.496 C168.26,55.048 168.676,54.496 168.972,53.84 C169.268,53.184 169.416,52.432 169.416,51.584 C169.416,51.04 169.352,50.528 169.224,50.048 C169.096,49.568 168.884,49.136 168.588,48.752 C168.292,48.368 167.908,48.044 167.436,47.78 C166.964,47.516 166.392,47.32 165.72,47.192 C166.392,46.776 166.892,46.268 167.22,45.668 C167.548,45.068 167.712,44.312 167.712,43.4 C167.712,41.896 167.28,40.744 166.416,39.944 C165.552,39.144 164.288,38.744 162.624,38.744 L162.624,38.744 L155.616,38.744 L155.616,56.84 L163.176,56.84 Z M161.184,45.848 L160.32,45.848 L160.32,42.344 L161.184,42.344 C162.656,42.344 163.392,42.928 163.392,44.096 C163.392,45.264 162.656,45.848 161.184,45.848 L161.184,45.848 Z M161.352,53.192 L160.32,53.192 L160.32,49.352 L161.352,49.352 C162.536,49.352 163.384,49.504 163.896,49.808 C164.408,50.112 164.664,50.6 164.664,51.272 C164.664,51.944 164.408,52.432 163.896,52.736 C163.384,53.04 162.536,53.192 161.352,53.192 L161.352,53.192 Z M178.656,57.296 C179.728,57.296 180.724,57.136 181.644,56.816 C182.564,56.496 183.352,56.044 184.008,55.46 C184.664,54.876 185.18,54.18 185.556,53.372 C185.932,52.564 186.12,51.672 186.12,50.696 C186.12,49.72 185.936,48.828 185.568,48.02 C185.2,47.212 184.684,46.516 184.02,45.932 C183.356,45.348 182.572,44.892 181.668,44.564 C180.764,44.236 179.784,44.072 178.728,44.072 C177.656,44.072 176.668,44.24 175.764,44.576 C174.86,44.912 174.08,45.372 173.424,45.956 C172.768,46.54 172.256,47.228 171.888,48.02 C171.52,48.812 171.336,49.664 171.336,50.576 C171.336,51.584 171.52,52.5 171.888,53.324 C172.256,54.148 172.764,54.856 173.412,55.448 C174.06,56.04 174.832,56.496 175.728,56.816 C176.624,57.136 177.6,57.296 178.656,57.296 Z M178.728,53.48 C178.344,53.48 177.98,53.408 177.636,53.264 C177.292,53.12 176.996,52.92 176.748,52.664 C176.5,52.408 176.3,52.108 176.148,51.764 C175.996,51.42 175.92,51.04 175.92,50.624 C175.92,50.24 175.996,49.88 176.148,49.544 C176.3,49.208 176.5,48.912 176.748,48.656 C176.996,48.4 177.292,48.2 177.636,48.056 C177.98,47.912 178.344,47.84 178.728,47.84 C179.112,47.84 179.476,47.912 179.82,48.056 C180.164,48.2 180.46,48.4 180.708,48.656 C180.956,48.912 181.156,49.212 181.308,49.556 C181.46,49.9 181.536,50.264 181.536,50.648 C181.536,51.048 181.46,51.42 181.308,51.764 C181.156,52.108 180.956,52.408 180.708,52.664 C180.46,52.92 180.164,53.12 179.82,53.264 C179.476,53.408 179.112,53.48 178.728,53.48 Z M194.352,57.224 C195.936,57.224 197.192,56.64 198.12,55.472 L198.12,55.472 L198.12,56.84 L202.488,56.84 L202.488,44.528 L198.12,44.528 L198.12,45.752 C197.112,44.68 195.84,44.144 194.304,44.144 C193.392,44.144 192.56,44.316 191.808,44.66 C191.056,45.004 190.408,45.472 189.864,46.064 C189.32,46.656 188.896,47.348 188.592,48.14 C188.288,48.932 188.136,49.768 188.136,50.648 C188.136,51.592 188.292,52.464 188.604,53.264 C188.916,54.064 189.352,54.76 189.912,55.352 C190.472,55.944 191.128,56.404 191.88,56.732 C192.632,57.06 193.456,57.224 194.352,57.224 Z M195.456,53.48 C195.056,53.48 194.684,53.408 194.34,53.264 C193.996,53.12 193.7,52.92 193.452,52.664 C193.204,52.408 193.008,52.108 192.864,51.764 C192.72,51.42 192.648,51.048 192.648,50.648 C192.648,50.264 192.72,49.908 192.864,49.58 C193.008,49.252 193.204,48.96 193.452,48.704 C193.7,48.448 193.996,48.248 194.34,48.104 C194.684,47.96 195.056,47.888 195.456,47.888 C195.84,47.888 196.204,47.96 196.548,48.104 C196.892,48.248 197.188,48.448 197.436,48.704 C197.684,48.96 197.884,49.26 198.036,49.604 C198.188,49.948 198.264,50.312 198.264,50.696 C198.264,51.08 198.188,51.44 198.036,51.776 C197.884,52.112 197.684,52.408 197.436,52.664 C197.188,52.92 196.892,53.12 196.548,53.264 C196.204,53.408 195.84,53.48 195.456,53.48 Z M209.784,56.84 L209.784,51.56 C209.784,50.408 210.036,49.532 210.54,48.932 C211.044,48.332 211.8,48.032 212.808,48.032 C213.48,48.032 214.104,48.176 214.68,48.464 L214.68,48.464 L214.68,44.312 C214.504,44.28 214.348,44.264 214.212,44.264 L214.212,44.264 L213.84,44.264 C212.944,44.264 212.16,44.46 211.488,44.852 C210.816,45.244 210.248,45.808 209.784,46.544 L209.784,46.544 L209.784,44.528 L205.44,44.528 L205.44,56.84 L209.784,56.84 Z M222.336,57.224 C223.92,57.224 225.176,56.64 226.104,55.472 L226.104,55.472 L226.104,56.84 L230.472,56.84 L230.472,36.92 L226.104,36.92 L226.104,45.752 C225.096,44.68 223.824,44.144 222.288,44.144 C221.376,44.144 220.54,44.316 219.78,44.66 C219.02,45.004 218.368,45.472 217.824,46.064 C217.28,46.656 216.86,47.348 216.564,48.14 C216.268,48.932 216.12,49.768 216.12,50.648 C216.12,51.576 216.276,52.44 216.588,53.24 C216.9,54.04 217.336,54.736 217.896,55.328 C218.456,55.92 219.112,56.384 219.864,56.72 C220.616,57.056 221.44,57.224 222.336,57.224 Z M223.44,53.48 C223.04,53.48 222.668,53.408 222.324,53.264 C221.98,53.12 221.684,52.92 221.436,52.664 C221.188,52.408 220.992,52.108 220.848,51.764 C220.704,51.42 220.632,51.048 220.632,50.648 C220.632,50.264 220.708,49.908 220.86,49.58 C221.012,49.252 221.212,48.96 221.46,48.704 C221.708,48.448 222.004,48.248 222.348,48.104 C222.692,47.96 223.056,47.888 223.44,47.888 C223.824,47.888 224.188,47.96 224.532,48.104 C224.876,48.248 225.172,48.448 225.42,48.704 C225.668,48.96 225.868,49.26 226.02,49.604 C226.172,49.948 226.248,50.312 226.248,50.696 C226.248,51.08 226.172,51.44 226.02,51.776 C225.868,52.112 225.668,52.408 225.42,52.664 C225.172,52.92 224.876,53.12 224.532,53.264 C224.188,53.408 223.824,53.48 223.44,53.48 Z M235.584,42.248 C235.92,42.248 236.236,42.184 236.532,42.056 C236.828,41.928 237.088,41.752 237.312,41.528 C237.536,41.304 237.712,41.044 237.84,40.748 C237.968,40.452 238.032,40.136 238.032,39.8 C238.032,39.464 237.968,39.148 237.84,38.852 C237.712,38.556 237.536,38.296 237.312,38.072 C237.088,37.848 236.828,37.672 236.532,37.544 C236.236,37.416 235.92,37.352 235.584,37.352 C235.248,37.352 234.932,37.416 234.636,37.544 C234.34,37.672 234.08,37.848 233.856,38.072 C233.632,38.296 233.456,38.556 233.328,38.852 C233.2,39.148 233.136,39.464 233.136,39.8 C233.136,40.136 233.2,40.452 233.328,40.748 C233.456,41.044 233.632,41.304 233.856,41.528 C234.08,41.752 234.34,41.928 234.636,42.056 C234.932,42.184 235.248,42.248 235.584,42.248 Z M237.768,56.84 L237.768,44.528 L233.424,44.528 L233.424,56.84 L237.768,56.84 Z M245.088,56.84 L245.088,50.264 C245.088,49.448 245.284,48.82 245.676,48.38 C246.068,47.94 246.632,47.72 247.368,47.72 C247.64,47.72 247.896,47.76 248.136,47.84 C248.376,47.92 248.592,48.056 248.784,48.248 C249.008,48.472 249.164,48.772 249.252,49.148 C249.34,49.524 249.384,50.016 249.384,50.624 L249.384,50.624 L249.384,56.84 L253.728,56.84 L253.728,49.016 C253.728,48.36 253.664,47.776 253.536,47.264 C253.408,46.752 253.168,46.288 252.816,45.872 C252.384,45.36 251.86,44.964 251.244,44.684 C250.628,44.404 249.888,44.264 249.024,44.264 C248.208,44.264 247.496,44.388 246.888,44.636 C246.28,44.884 245.68,45.368 245.088,46.088 L245.088,46.088 L245.088,44.528 L240.744,44.528 L240.744,56.84 L245.088,56.84 Z M263.304,63.032 C264.152,63.032 264.94,62.936 265.668,62.744 C266.396,62.552 267.048,62.288 267.624,61.952 C268.2,61.616 268.692,61.22 269.1,60.764 C269.508,60.308 269.808,59.816 270,59.288 C270.144,58.872 270.256,58.392 270.336,57.848 C270.416,57.304 270.456,56.688 270.456,56 L270.456,56 L270.456,44.528 L266.112,44.528 L266.112,45.824 C265.12,44.736 263.896,44.192 262.44,44.192 C261.544,44.192 260.716,44.364 259.956,44.708 C259.196,45.052 258.54,45.524 257.988,46.124 C257.436,46.724 257,47.428 256.68,48.236 C256.36,49.044 256.2,49.92 256.2,50.864 C256.2,51.792 256.348,52.636 256.644,53.396 C256.94,54.156 257.356,54.808 257.892,55.352 C258.428,55.896 259.064,56.32 259.8,56.624 C260.536,56.928 261.344,57.08 262.224,57.08 C262.624,57.08 262.992,57.052 263.328,56.996 C263.664,56.94 263.984,56.848 264.288,56.72 C264.592,56.592 264.892,56.428 265.188,56.228 C265.484,56.028 265.792,55.776 266.112,55.472 L266.112,55.472 L266.112,56.648 C266.112,57.56 265.868,58.272 265.38,58.784 C264.892,59.296 264.192,59.552 263.28,59.552 C262.208,59.552 261.52,59.144 261.216,58.328 L261.216,58.328 L256.32,58.328 C256.448,59 256.704,59.62 257.088,60.188 C257.472,60.756 257.964,61.252 258.564,61.676 C259.164,62.1 259.864,62.432 260.664,62.672 C261.464,62.912 262.344,63.032 263.304,63.032 Z M263.52,53.456 C263.12,53.456 262.748,53.384 262.404,53.24 C262.06,53.096 261.764,52.896 261.516,52.64 C261.268,52.384 261.072,52.084 260.928,51.74 C260.784,51.396 260.712,51.024 260.712,50.624 C260.712,50.24 260.788,49.88 260.94,49.544 C261.092,49.208 261.296,48.916 261.552,48.668 C261.808,48.42 262.104,48.22 262.44,48.068 C262.776,47.916 263.136,47.84 263.52,47.84 C263.888,47.84 264.244,47.912 264.588,48.056 C264.932,48.2 265.232,48.4 265.488,48.656 C265.744,48.912 265.948,49.208 266.1,49.544 C266.252,49.88 266.328,50.248 266.328,50.648 C266.328,51.032 266.252,51.396 266.1,51.74 C265.948,52.084 265.748,52.384 265.5,52.64 C265.252,52.896 264.956,53.096 264.612,53.24 C264.268,53.384 263.904,53.456 263.52,53.456 Z M287.52,57.344 C288.624,57.344 289.612,57.196 290.484,56.9 C291.356,56.604 292.092,56.188 292.692,55.652 C293.292,55.116 293.748,54.472 294.06,53.72 C294.372,52.968 294.528,52.128 294.528,51.2 C294.528,49.824 294.172,48.708 293.46,47.852 C292.748,46.996 291.624,46.312 290.088,45.8 C289.704,45.672 289.316,45.552 288.924,45.44 C288.532,45.328 288.18,45.196 287.868,45.044 C287.556,44.892 287.304,44.712 287.112,44.504 C286.92,44.296 286.824,44.032 286.824,43.712 C286.824,43.248 287.016,42.872 287.4,42.584 C287.784,42.296 288.28,42.152 288.888,42.152 C289.368,42.152 289.864,42.252 290.376,42.452 C290.888,42.652 291.4,42.96 291.912,43.376 L291.912,43.376 L293.784,39.704 C292.888,39.224 291.952,38.86 290.976,38.612 C290,38.364 289.064,38.24 288.168,38.24 C287.208,38.24 286.34,38.384 285.564,38.672 C284.788,38.96 284.132,39.364 283.596,39.884 C283.06,40.404 282.644,41.028 282.348,41.756 C282.052,42.484 281.904,43.296 281.904,44.192 C281.904,45.088 282.044,45.828 282.324,46.412 C282.604,46.996 282.972,47.48 283.428,47.864 C283.884,48.248 284.404,48.556 284.988,48.788 C285.572,49.02 286.168,49.232 286.776,49.424 C287.288,49.6 287.724,49.76 288.084,49.904 C288.444,50.048 288.736,50.204 288.96,50.372 C289.184,50.54 289.344,50.724 289.44,50.924 C289.536,51.124 289.584,51.36 289.584,51.632 C289.584,52.08 289.396,52.48 289.02,52.832 C288.644,53.184 288.072,53.36 287.304,53.36 C286.632,53.36 285.952,53.208 285.264,52.904 C284.576,52.6 283.88,52.136 283.176,51.512 L283.176,51.512 L281.16,55.304 C283.112,56.664 285.232,57.344 287.52,57.344 Z M303.312,57.224 C304.272,57.224 305.288,56.992 306.36,56.528 L306.36,56.528 L306.36,52.832 C305.656,53.392 304.896,53.672 304.08,53.672 C303.664,53.672 303.272,53.6 302.904,53.456 C302.536,53.312 302.22,53.108 301.956,52.844 C301.692,52.58 301.484,52.268 301.332,51.908 C301.18,51.548 301.104,51.152 301.104,50.72 C301.104,50.272 301.18,49.868 301.332,49.508 C301.484,49.148 301.696,48.836 301.968,48.572 C302.24,48.308 302.556,48.104 302.916,47.96 C303.276,47.816 303.664,47.744 304.08,47.744 C304.848,47.744 305.608,48 306.36,48.512 L306.36,48.512 L306.36,44.816 C305.464,44.368 304.488,44.144 303.432,44.144 C302.472,44.144 301.572,44.308 300.732,44.636 C299.892,44.964 299.168,45.42 298.56,46.004 C297.952,46.588 297.472,47.284 297.12,48.092 C296.768,48.9 296.592,49.792 296.592,50.768 C296.592,51.744 296.776,52.628 297.144,53.42 C297.512,54.212 298.004,54.892 298.62,55.46 C299.236,56.028 299.948,56.464 300.756,56.768 C301.564,57.072 302.416,57.224 303.312,57.224 Z M313.176,56.84 L313.176,50.264 C313.176,49.448 313.372,48.82 313.764,48.38 C314.156,47.94 314.72,47.72 315.456,47.72 C316,47.72 316.464,47.888 316.848,48.224 C317.072,48.432 317.232,48.728 317.328,49.112 C317.424,49.496 317.472,50 317.472,50.624 L317.472,50.624 L317.472,56.84 L321.816,56.84 L321.816,49.016 C321.816,47.56 321.42,46.404 320.628,45.548 C319.836,44.692 318.664,44.264 317.112,44.264 C316.296,44.264 315.584,44.388 314.976,44.636 C314.368,44.884 313.768,45.368 313.176,46.088 L313.176,46.088 L313.176,36.92 L308.832,36.92 L308.832,56.84 L313.176,56.84 Z M331.608,57.296 C332.68,57.296 333.676,57.136 334.596,56.816 C335.516,56.496 336.304,56.044 336.96,55.46 C337.616,54.876 338.132,54.18 338.508,53.372 C338.884,52.564 339.072,51.672 339.072,50.696 C339.072,49.72 338.888,48.828 338.52,48.02 C338.152,47.212 337.636,46.516 336.972,45.932 C336.308,45.348 335.524,44.892 334.62,44.564 C333.716,44.236 332.736,44.072 331.68,44.072 C330.608,44.072 329.62,44.24 328.716,44.576 C327.812,44.912 327.032,45.372 326.376,45.956 C325.72,46.54 325.208,47.228 324.84,48.02 C324.472,48.812 324.288,49.664 324.288,50.576 C324.288,51.584 324.472,52.5 324.84,53.324 C325.208,54.148 325.716,54.856 326.364,55.448 C327.012,56.04 327.784,56.496 328.68,56.816 C329.576,57.136 330.552,57.296 331.608,57.296 Z M331.68,53.48 C331.296,53.48 330.932,53.408 330.588,53.264 C330.244,53.12 329.948,52.92 329.7,52.664 C329.452,52.408 329.252,52.108 329.1,51.764 C328.948,51.42 328.872,51.04 328.872,50.624 C328.872,50.24 328.948,49.88 329.1,49.544 C329.252,49.208 329.452,48.912 329.7,48.656 C329.948,48.4 330.244,48.2 330.588,48.056 C330.932,47.912 331.296,47.84 331.68,47.84 C332.064,47.84 332.428,47.912 332.772,48.056 C333.116,48.2 333.412,48.4 333.66,48.656 C333.908,48.912 334.108,49.212 334.26,49.556 C334.412,49.9 334.488,50.264 334.488,50.648 C334.488,51.048 334.412,51.42 334.26,51.764 C334.108,52.108 333.908,52.408 333.66,52.664 C333.412,52.92 333.116,53.12 332.772,53.264 C332.428,53.408 332.064,53.48 331.68,53.48 Z M348.408,57.296 C349.48,57.296 350.476,57.136 351.396,56.816 C352.316,56.496 353.104,56.044 353.76,55.46 C354.416,54.876 354.932,54.18 355.308,53.372 C355.684,52.564 355.872,51.672 355.872,50.696 C355.872,49.72 355.688,48.828 355.32,48.02 C354.952,47.212 354.436,46.516 353.772,45.932 C353.108,45.348 352.324,44.892 351.42,44.564 C350.516,44.236 349.536,44.072 348.48,44.072 C347.408,44.072 346.42,44.24 345.516,44.576 C344.612,44.912 343.832,45.372 343.176,45.956 C342.52,46.54 342.008,47.228 341.64,48.02 C341.272,48.812 341.088,49.664 341.088,50.576 C341.088,51.584 341.272,52.5 341.64,53.324 C342.008,54.148 342.516,54.856 343.164,55.448 C343.812,56.04 344.584,56.496 345.48,56.816 C346.376,57.136 347.352,57.296 348.408,57.296 Z M348.48,53.48 C348.096,53.48 347.732,53.408 347.388,53.264 C347.044,53.12 346.748,52.92 346.5,52.664 C346.252,52.408 346.052,52.108 345.9,51.764 C345.748,51.42 345.672,51.04 345.672,50.624 C345.672,50.24 345.748,49.88 345.9,49.544 C346.052,49.208 346.252,48.912 346.5,48.656 C346.748,48.4 347.044,48.2 347.388,48.056 C347.732,47.912 348.096,47.84 348.48,47.84 C348.864,47.84 349.228,47.912 349.572,48.056 C349.916,48.2 350.212,48.4 350.46,48.656 C350.708,48.912 350.908,49.212 351.06,49.556 C351.212,49.9 351.288,50.264 351.288,50.648 C351.288,51.048 351.212,51.42 351.06,51.764 C350.908,52.108 350.708,52.408 350.46,52.664 C350.212,52.92 349.916,53.12 349.572,53.264 C349.228,53.408 348.864,53.48 348.48,53.48 Z M362.712,56.84 L362.712,36.92 L358.368,36.92 L358.368,56.84 L362.712,56.84 Z" id="AnnalJyotiBoardingSchool" fill="#029A29"></path>
                <path d="M10.212766,31 C12.3687943,31 14.1560284,30.5083014 15.5744681,29.5249042 C17.1914894,28.4291188 18,26.8556833 18,24.8045977 C18,23.2592593 17.5106383,21.9106003 16.5319149,20.7586207 C15.5531915,19.6066411 14.2978723,19.0306513 12.7659574,19.0306513 C13.9858156,19.0587484 14.9787234,18.6232439 15.7446809,17.7241379 C16.4255319,16.8812261 16.7659574,15.8416347 16.7659574,14.605364 C16.7659574,12.9195402 15.9148936,11.48659 14.212766,10.3065134 C12.964539,9.43550447 11.0638298,9 8.5106383,9 C6.24113475,9 4.31205674,9.47765006 2.72340426,10.4329502 L2.72340426,10.4329502 L2.72340426,14.2260536 C4.42553191,12.6526181 6.07092199,11.8659004 7.65957447,11.8659004 C8.42553191,11.8659004 9.12056738,12.0766284 9.74468085,12.4980843 C10.4822695,12.9476373 10.8368794,13.5376756 10.8085106,14.2681992 C10.751773,15.2515964 10.3758865,16.0312899 9.68085106,16.6072797 C8.9858156,17.1832695 8.12765957,17.4712644 7.10638298,17.4712644 C6.68085106,17.4712644 6.29787234,17.4010217 5.95744681,17.2605364 L5.95744681,17.2605364 L5.95744681,20.3793103 C6.58156028,20.2950192 7.14893617,20.2528736 7.65957447,20.2528736 C10.212766,20.2528736 11.4893617,21.559387 11.4893617,24.1724138 C11.4893617,25.0153257 11.141844,25.7037037 10.4468085,26.2375479 C9.75177305,26.7713921 8.96453901,27.0383142 8.08510638,27.0383142 C5.81560284,27.0383142 4.22695035,25.5070243 3.31914894,22.4444444 L3.31914894,22.4444444 L0,26.2796935 C2.72340426,29.4265645 6.12765957,31 10.212766,31 Z M26.0821918,30 L26.0821918,11.5301205 L29,11.5301205 L29,9 L17,9 L17,11.5301205 L20.739726,11.5301205 L20.739726,17.686747 L17.0410959,17.686747 L17.0410959,20.5542169 L20.739726,20.5542169 L20.739726,30 L26.0821918,30 Z M3,12 L3,9 L0,9 L0,12 L3,12 Z M51.046589,30 L51.046589,11.5722892 L54,11.5722892 L54,9 L28.4202939,9 L28.4202939,11.5722892 L45.6805324,11.5722892 L45.7221298,14.3554217 C43.5867998,13.624498 41.5207987,13.2590361 39.5241265,13.2590361 C36.723239,13.2590361 34.4492512,13.8915663 32.7021631,15.1566265 C30.760954,16.5903614 29.7903494,18.6706827 29.7903494,21.3975904 C29.7903494,23.6184739 30.4697726,25.4176707 31.828619,26.7951807 C33.1874653,28.1726908 34.9622851,28.8333333 37.1530782,28.7771084 C41.5346644,28.6646586 43.7531891,26.2188755 43.8086522,21.439759 C43.8363838,18.9096386 42.5884637,17.1385542 40.0648918,16.126506 C42.5330006,16.2951807 44.4187465,16.7590361 45.7221298,17.5180723 L45.7221298,30 L51.046589,30 Z M38.0648554,25 C37.3356705,25 36.7887818,24.5048544 36.4241893,23.5145631 C36.115688,22.7572816 35.9754601,21.9563107 36.0035057,21.1116505 C36.115688,17.7621359 37.4478528,16.0582524 40,16 L40,16 L37.7283085,17.9660194 C37.9526731,17.8786408 38.1630149,17.8349515 38.3593339,17.8349515 C39.2567923,17.8349515 39.733567,18.9708738 39.7896582,21.2427184 C39.8737949,23.7475728 39.2988606,25 38.0648554,25 Z M65.2553191,32 C66.5886525,32 67.964539,31.8130081 69.3829787,31.4390244 L70.4893617,27.684803 C68.6170213,28.5766104 67.0141844,29.0225141 65.6808511,29.0225141 C62.7304965,29.0225141 61.2553191,26.9080675 61.2553191,22.6791745 C61.2553191,21.3270794 61.4397163,20.1044403 61.8085106,19.011257 C62.3191489,17.4865541 63.1276596,16.7242026 64.2340426,16.7242026 C65.0851064,16.7242026 65.751773,17.1844903 66.2340426,18.1050657 C66.6312057,18.8242652 66.8297872,19.6585366 66.8297872,20.6078799 L66.8297872,25.0525328 L72.1914894,25.0525328 L72.1914894,20.7373358 C72.1914894,18.8961851 72.8865248,17.9756098 74.2765957,17.9756098 C75.0992908,17.9756098 75.7659574,18.2201376 76.2765957,18.7091932 L76.2765957,30.4896811 L82.0212766,30.4896811 L82.0212766,11.5891182 L85,11.5891182 L85,9 L53.7635196,9 L53.7635196,11.5891182 L76.2765957,11.5891182 L76.2765957,15.1275797 C75.7092199,14.5522201 74.9007092,14.2645403 73.8510638,14.2645403 C72.8014184,14.2645403 71.8652482,14.5666041 71.0425532,15.1707317 C70.2198582,15.7748593 69.7234043,16.5947467 69.5531915,17.630394 C69.070922,16.3358349 68.2269504,15.3217636 67.0212766,14.5881801 C65.8156028,13.8545966 64.5035461,13.4878049 63.0851064,13.4878049 C60.5602837,13.4878049 58.6170213,14.4803002 57.2553191,16.4652908 C56.035461,18.2201376 55.4255319,20.435272 55.4255319,23.1106942 C55.4255319,25.8436523 56.4042553,28.0300188 58.3617021,29.6697936 C60.2056738,31.2232645 62.5035461,32 65.2553191,32 Z M118,11.61769 L118,9 L95,9 L95,11.61769 L118,11.61769 Z M103.619426,29.9988522 L104.201521,29.9978299 C106.487959,29.9703422 108.46071,29.2281749 110.119772,27.7713278 C111.778834,26.3144808 112.608365,24.4728062 112.608365,22.2463041 C112.608365,19.9648266 111.632446,18.040689 109.680608,16.4738912 L109.680608,16.4738912 L117,16.4738912 L117,14 L102.068441,14 L102.068441,16.4738912 L104.536122,16.4738912 C105.456274,16.8587187 106.097592,17.5596546 106.460076,18.5766988 C106.65526,19.2364031 106.780735,20.2259596 106.836502,21.5453682 C106.892269,22.9472399 106.613435,24.1841855 106,25.2562051 C105.275032,26.5206384 104.243346,27.152855 102.904943,27.152855 C100.618504,27.152855 98.8757921,25.3111804 97.6768061,21.6278313 L97.6768061,21.6278313 L95,26.122067 C96.1153359,27.6613771 97.4537389,28.7196528 99.0152091,29.2968941 C100.297845,29.7916723 102.026616,30.0253176 104.201521,29.9978299 L103.619426,29.9988522 Z M139.030995,30 L139.030995,11.5301205 L142,11.5301205 L142,9 L116,9 L116,11.5301205 L123.380098,11.5301205 C124.171833,11.5301205 124.79391,11.8604418 125.24633,12.5210843 C125.698749,13.1817269 125.924959,13.9337349 125.924959,14.7771084 C125.924959,16.0140562 125.529092,17.0050201 124.737357,17.75 C123.945623,18.4949799 122.927678,18.8674699 121.683524,18.8674699 C120.213159,18.8674699 118.516585,18.375502 116.593801,17.3915663 L116.593801,17.3915663 L116.593801,22.3253012 C117.781403,24.2931727 119.569875,25.9588353 121.959217,27.3222892 C124.348559,28.685743 126.688418,29.3674699 128.978793,29.3674699 C130.873301,29.3674699 132.485046,28.8614458 133.814029,27.8493976 L133.814029,27.8493976 L133.814029,30 L139.030995,30 Z M129.478261,26 C128.086957,26 126.688406,25.5375723 125.282609,24.6127168 C123.876812,23.6878613 122.782609,22.5895954 122,21.3179191 C122.666667,21.4046243 123.289855,21.4479769 123.869565,21.4479769 C126.043478,21.4479769 127.84058,20.8988439 129.26087,19.800578 C130.826087,18.5867052 131.608696,16.9393064 131.608696,14.8583815 C131.608696,13.0375723 131.043478,11.7514451 129.913043,11 L129.913043,11 L134,11 L134,23.3988439 C132.869565,25.132948 131.362319,26 129.478261,26 Z M147.978723,30 L147.978723,11.5301205 L151,11.5301205 L151,9 L141,9 L141,11.5301205 L142.531915,11.5301205 L142.531915,30 L147.978723,30 Z M147,9 L141.367347,2.86956522 C140.85034,2.28985507 140.095238,1.83333333 139.102041,1.5 C138.108844,1.16666667 137.190476,1 136.346939,1 C135.068027,1 133.952381,1.20289855 133,1.60869565 L133,1.60869565 L133,4.13043478 C133.435374,3.84057971 133.92517,3.69565217 134.469388,3.69565217 C135.557823,3.69565217 136.659864,4.23188406 137.77551,5.30434783 L137.77551,5.30434783 L140.877551,9 L147,9 Z M156.771704,29.66 L156.771704,11.5796313 L159.808856,11.5796313 L159.697749,9.01058413 L156.813505,9.01058413 C156.005359,8.34714908 155.670954,7.62842778 155.810289,6.85442023 C156.144695,4.83647196 158.095391,3.82749782 161.662379,3.82749782 C165.480171,3.82749782 168.42015,5.54137169 170.482315,8.96911944 L176,7.02027899 C174.021436,4.89175821 171.276527,3.23317059 167.765273,2.04451613 C164.699893,1.02172043 161.885316,0.565608835 159.321543,0.676181343 C156.785638,0.786753851 154.765273,1.28433014 153.26045,2.1689102 C151.309753,3.32992153 150.445874,5.07143854 150.66881,7.3934612 C150.724544,8.00161 151.031083,8.54065097 151.588424,9.01058413 L150,9.01058413 L150,11.4984656 L151.421222,11.4984656 L151.421222,29.66 L156.771704,29.66 Z M169.007519,32 L170.744361,28.5973783 C170.275689,28.6835206 169.807018,28.7265918 169.338346,28.7265918 C166.526316,28.7553059 165.106516,26.7309613 165.078947,22.6535581 C165.051378,21.0168539 165.368421,19.6672909 166.030075,18.6048689 C166.802005,17.3414482 167.918546,16.7097378 169.379699,16.7097378 C170.344612,16.7097378 171.378446,16.9968789 172.481203,17.571161 L172.481203,17.571161 L172.481203,30.4494382 L178.06391,30.4494382 L178.105263,11.5842697 L181,11.5842697 L181,9 L159,9 L159,11.5842697 L172.481203,11.5842697 L172.481203,14.340824 C171.075188,13.9675406 169.724311,13.7808989 168.428571,13.7808989 C165.588972,13.7808989 163.348997,14.5992509 161.708647,16.2359551 C160.068296,17.8726592 159.303258,20.1554307 159.413534,23.0842697 C159.52381,25.8982522 160.488722,28.0948814 162.308271,29.6741573 C164.017544,31.1672909 166.250627,31.9425718 169.007519,32 L169.007519,32 Z M209.942812,30 L209.942812,11.5301205 L213,11.5301205 L213,9 L193.000894,9 L193.000894,11.5301205 L204.46535,11.5301205 L204.46535,22.4096386 L199.794645,16.9698795 C200.27587,16.2670683 200.941091,15.9156627 201.79031,15.9156627 C202.5263,15.9156627 203.276443,16.126506 204.04074,16.5481928 L204.04074,16.5481928 L203.14906,13.3855422 C202.328149,13.1044177 201.450622,12.9638554 200.516482,12.9638554 C198.110361,12.9638554 196.249156,13.7299197 194.932867,15.2620482 C193.616578,16.7941767 192.972587,18.7831325 193.000894,21.2289157 C193.029201,23.7028112 193.729807,25.6214859 195.102711,26.9849398 C196.475615,28.3483936 198.407588,29.0301205 200.89863,29.0301205 C202.710297,29.0301205 203.899204,28.7911647 204.46535,28.313253 L204.46535,28.313253 L204.46535,30 L209.942812,30 Z M202.455285,26 C201.317073,26 200.422764,25.43125 199.772358,24.29375 C199.257453,23.3604167 199,22.2375 199,20.925 C199,20.3125 199.054201,19.6708333 199.162602,19 L199.162602,19 L204,25.475 C203.539295,25.825 203.02439,26 202.455285,26 Z M219.978723,30 L219.978723,11.5301205 L223,11.5301205 L223,9 L213,9 L213,11.5301205 L214.531915,11.5301205 L214.531915,30 L219.978723,30 Z M219,9 L213.367347,2.86956522 C212.85034,2.28985507 212.095238,1.83333333 211.102041,1.5 C210.108844,1.16666667 209.190476,1 208.346939,1 C207.068027,1 205.952381,1.20289855 205,1.60869565 L205,1.60869565 L205,4.13043478 C205.435374,3.84057971 205.92517,3.69565217 206.469388,3.69565217 C207.557823,3.69565217 208.659864,4.23188406 209.77551,5.30434783 L209.77551,5.30434783 L212.877551,9 L219,9 Z M228.771704,30 L228.771704,11.5198777 L231.697749,11.5198777 L231.697749,9.00640869 C230.930583,9.00640869 230.349891,9.00640869 229.955673,9.00640869 C229.708948,9.00640869 229.328225,8.88378423 228.813505,8.63853531 C228.005359,7.95222319 227.670954,7.2087184 227.810289,6.40802092 C228.144695,4.32048823 230.095391,3.27672188 233.662379,3.27672188 C237.480171,3.27672188 240.42015,5.04969486 242.482315,8.5956408 L248,6.57959895 C246.021436,4.37768091 243.276527,2.66190061 239.765273,1.43225806 C236.699893,0.374193548 233.885316,-0.0976460331 231.321543,0.01673932 C228.785638,0.131124673 226.765273,0.645858762 225.26045,1.56094159 C223.309753,2.76198779 222.445874,4.56355711 222.66881,6.96564952 C222.724544,7.59476896 223.031083,8.15239756 223.588424,8.63853531 L224.038937,9.03181827 L222,9.03181827 L222,11.5198777 L223.588424,11.5198777 L223.421222,30 L228.771704,30 Z M240.122176,29.9992377 L240.608133,29.982436 C247.523722,29.5652901 250.981516,27.2431783 250.981516,23.0161004 C250.981516,21.6256142 250.506778,20.4297961 249.557301,19.4286461 C248.607825,18.4274961 247.424522,17.9269211 246.007394,17.9269211 L246.007394,17.9269211 L238.865065,17.9269211 C237.844732,17.9269211 237.334566,17.4819655 237.334566,16.5920544 C237.334566,15.7021432 237.788047,15.2571877 238.695009,15.2571877 L238.695009,15.2571877 L249.025878,15.2571877 L249.025878,11.5028751 L254,11.5028751 L254,9 L231,9 L231,11.5028751 L243.584104,11.5028751 L243.584104,12.7960272 L237.419593,12.7960272 C233.650031,12.7960272 231.779421,14.1587036 231.807763,16.8840565 C231.807763,18.1911134 232.388786,19.1783586 233.550832,19.8457919 C234.514479,20.4019864 235.704868,20.6800836 237.121996,20.6800836 L237.121996,20.6800836 L242.733826,20.6800836 C243.357363,20.6800836 243.867529,20.9720857 244.264325,21.5560899 C244.661121,22.1400941 244.859519,22.751908 244.859519,23.3915316 C244.859519,24.1980136 244.576094,24.8376372 244.009242,25.3104025 C242.648799,26.4784109 241.23167,27.0624151 239.757856,27.0624151 C238.085644,27.0624151 236.470117,26.3393623 234.911275,24.8932567 C233.664202,23.753058 233.040665,22.9743858 233.040665,22.5572399 L233.040665,22.5572399 L231.255083,27.0624151 C231.141713,27.3127026 232.133703,27.868897 234.231054,28.7309984 C236.555145,29.676529 238.680838,30.0936749 240.608133,29.982436 L240.122176,29.9992377 Z M249.955619,9 C249.260797,8.62271973 248.913386,7.96973466 248.913386,7.04104478 C248.913386,6.72180763 248.966834,6.34452736 249.073729,5.90920398 C249.260797,5.15464345 249.661656,4.77736318 250.276306,4.77736318 C250.784061,4.77736318 251.358626,5.02404643 252,5.51741294 L252,5.51741294 L251.438797,2.42661692 C250.049153,2.02031509 248.726318,1.90422886 247.470293,2.07835821 C245.305655,2.3685738 244.156526,3.58747927 244.022906,5.73507463 C243.91601,7.30223881 244.18325,8.39054726 244.824624,9 L244.824624,9 L249.955619,9 Z M263.132379,30 C265.851521,30 268.09839,29.5 269.872987,28.5 C272.076923,27.2777778 273.178891,25.4444444 273.178891,23 C273.178891,21.6666667 272.685152,20.4861111 271.697674,19.4583333 C270.710197,18.4305556 269.529517,17.9166667 268.155635,17.9166667 L268.155635,17.9166667 L260.942755,17.9166667 C259.912343,17.9166667 259.397138,17.4722222 259.397138,16.5833333 C259.397138,15.6944444 259.855098,15.25 260.77102,15.25 L260.77102,15.25 L271.203936,15.25 L271.203936,11.4583333 L277,11.4583333 L277,9 L253,9 L253,11.4583333 L265.708408,11.4583333 L265.708408,12.7916667 L259.483005,12.7916667 C255.676208,12.7916667 253.78712,14.1527778 253.815742,16.875 C253.815742,18.1805556 254.402504,19.1666667 255.576029,19.8333333 C256.549195,20.3888889 257.751342,20.6666667 259.182469,20.6666667 L259.182469,20.6666667 L264.849732,20.6666667 C265.50805,20.6666667 266.051878,20.9722222 266.481216,21.5833333 C266.910555,22.1944444 267.125224,22.8333333 267.125224,23.5 C267.125224,24.25 266.853309,24.8472222 266.309481,25.2916667 C264.935599,26.4583333 263.490161,27.0416667 261.973166,27.0416667 C260.284436,27.0416667 258.63864,26.3194444 257.035778,24.875 C255.719141,23.7083333 255.060823,22.9305556 255.060823,22.5416667 L255.060823,22.5416667 L253.686941,27.25 C254.602862,28.1666667 256.076923,28.875 258.109123,29.375 C259.769231,29.7916667 261.443649,30 263.132379,30 Z M274.122449,20 C275.37415,20 276,19.3699634 276,18.1098901 C276,17.5238095 275.802721,17.025641 275.408163,16.6153846 C275.013605,16.2051282 274.544218,16 274,16 C273.455782,16 272.986395,16.2051282 272.591837,16.6153846 C272.197279,17.025641 272,17.5238095 272,18.1098901 C272,18.6959707 272.217687,19.1575092 272.653061,19.4945055 C273.088435,19.8315018 273.578231,20 274.122449,20 Z M300.3386,32 C301.196388,32 302.097065,31.8321168 303.040632,31.4963504 L303.040632,31.4963504 L304.198646,28.4744526 C303.512415,28.7542579 302.92626,28.8941606 302.440181,28.8941606 C301.5538,28.8941606 300.710309,28.3485401 299.909707,27.2572993 C299.537998,26.7816302 299.023326,25.8722628 298.365688,24.5291971 C297.479308,22.7664234 296.035365,21.6611922 294.03386,21.2135036 C295.406321,21.0176399 296.449962,20.7798054 297.164786,20.5 C298.451467,19.9963504 299.40933,19.1849148 300.038375,18.0656934 C300.009782,18.2895377 300.024078,18.5973236 300.081264,18.9890511 L300.081264,18.9890511 L305.699774,18.9890511 L305.699774,16.2189781 L300.424379,16.2189781 C300.510158,15.743309 300.553047,15.2956204 300.553047,14.8759124 C300.553047,14.0364964 300.3386,13.2810219 299.909707,12.6094891 C299.480813,11.9379562 298.866065,11.560219 298.065463,11.4762774 L298.065463,11.4762774 L306,11.4762774 L306,9 L287,9 L287,11.4762774 L292.832957,11.4762774 C293.54778,11.560219 294.119639,12.0218978 294.548533,12.8613139 C294.948834,13.5608273 295.148984,14.2883212 295.148984,15.0437956 C295.148984,17.310219 293.862302,18.4434307 291.288939,18.4434307 C290.231001,18.4434307 288.972912,18.1916058 287.514673,17.6879562 L287.514673,17.6879562 L287.514673,21.7171533 C287.800602,21.6052311 288.086531,21.5492701 288.37246,21.5492701 C289.34462,21.5492701 290.302483,22.2208029 291.24605,23.5638686 C292.847254,25.9142336 294.048157,27.6909976 294.848758,28.8941606 C296.392777,30.9647202 298.222724,32 300.3386,32 Z M323.03719,30 L323.07989,17.1385542 C323.905418,16.6606426 324.745179,16.4216867 325.599174,16.4216867 C327.791093,16.4216867 328.901286,17.9116466 328.929752,20.8915663 C328.929752,22.1285141 328.74472,23.1967871 328.374656,24.0963855 C327.890725,25.3614458 327.107897,25.9939759 326.026171,25.9939759 C325.314509,25.9939759 324.65978,25.6987952 324.061983,25.1084337 L324.061983,25.1084337 L325.172176,28.7349398 C325.656107,28.8192771 326.140037,28.8614458 326.623967,28.8614458 C328.78742,28.8614458 330.666208,28.1586345 332.260331,26.753012 C333.996786,25.2068273 334.879247,23.1827309 334.907713,20.6807229 C334.93618,18.4317269 334.245868,16.5903614 332.836777,15.1566265 C331.427686,13.7228916 329.598714,13.0060241 327.349862,13.0060241 C325.784206,13.0060241 324.346648,13.3995984 323.03719,14.186747 L323.03719,14.186747 L323.03719,11.4879518 L337,11.4879518 L337,9 L306,9 L306,11.4879518 L317.571625,11.4879518 L317.571625,25.1927711 C316.88843,25.6425703 316.176768,25.8674699 315.436639,25.8674699 C314.269513,25.8674699 313.401286,25.3052209 312.831956,24.1807229 C312.348026,23.3092369 312.106061,22.2409639 312.106061,20.9759036 C312.106061,19.6827309 312.305326,18.6004016 312.703857,17.7289157 C313.216253,16.5200803 314.041781,15.9156627 315.180441,15.9156627 C315.806703,15.9156627 316.504132,16.126506 317.272727,16.5481928 L317.272727,16.5481928 L316.247934,13.3012048 C315.365473,13.0763052 314.497245,12.9638554 313.643251,12.9638554 C311.195133,12.9638554 309.309229,13.7299197 307.985537,15.2620482 C306.661846,16.7941767 306,18.7831325 306,21.2289157 C306,23.7028112 306.839761,25.6144578 308.519284,26.9638554 C310.056474,28.2289157 312.091827,28.8614458 314.625344,28.8614458 C316.134068,28.8614458 317.101928,28.6787149 317.528926,28.313253 L317.528926,28.313253 L317.486226,30 L323.03719,30 Z M330.391764,37 C335.434879,37 337.970844,35.7866667 337.999662,33.36 C338.02848,31.12 336.212959,30 332.553099,30 C330.334129,30 328.87883,30.3866667 328.187203,31.16 L328.187203,33.8 C328.821195,32.92 329.714546,32.48 330.867258,32.48 C331.847063,32.48 332.336966,32.8266667 332.336966,33.52 C332.336966,34.4266667 331.702974,34.88 330.434991,34.88 C329.426368,34.88 328.403337,34.5933333 327.365896,34.02 C326.328455,33.4466667 325.680055,32.7333333 325.420695,31.88 L323,34.4 C325.622419,36.1333333 328.086341,37 330.391764,37 Z M346.255319,32 C347.588652,32 348.964539,31.8130081 350.382979,31.4390244 L351.489362,27.684803 C349.617021,28.5766104 348.014184,29.0225141 346.680851,29.0225141 C343.730496,29.0225141 342.255319,26.9080675 342.255319,22.6791745 C342.255319,21.3270794 342.439716,20.1044403 342.808511,19.011257 C343.319149,17.4865541 344.12766,16.7242026 345.234043,16.7242026 C346.085106,16.7242026 346.751773,17.1844903 347.234043,18.1050657 C347.631206,18.8242652 347.829787,19.6585366 347.829787,20.6078799 L347.829787,25.0525328 L353.191489,25.0525328 L353.191489,20.7373358 C353.191489,18.8961851 353.886525,17.9756098 355.276596,17.9756098 C356.099291,17.9756098 356.765957,18.2201376 357.276596,18.7091932 L357.276596,30.4896811 L363.021277,30.4896811 L363.021277,11.5891182 L366,11.5891182 L366,9 L336,9 L336,11.4650106 L357.276596,11.5891182 L357.276596,15.1275797 C356.70922,14.5522201 355.900709,14.2645403 354.851064,14.2645403 C353.801418,14.2645403 352.865248,14.5666041 352.042553,15.1707317 C351.219858,15.7748593 350.723404,16.5947467 350.553191,17.630394 C350.070922,16.3358349 349.22695,15.3217636 348.021277,14.5881801 C346.815603,13.8545966 345.503546,13.4878049 344.085106,13.4878049 C341.560284,13.4878049 339.617021,14.4803002 338.255319,16.4652908 C337.035461,18.2201376 336.425532,20.435272 336.425532,23.1106942 C336.425532,25.8436523 337.404255,28.0300188 339.361702,29.6697936 C341.205674,31.2232645 343.503546,32 346.255319,32 Z" id="cgnHof]ltaf]l8{ª:s'n" fill="#252178"></path>
            </g>
        </g>
    </g>
</svg>